<svg width="493" height="493" viewBox="0 0 493 493" fill="none" xmlns="http://www.w3.org/2000/svg">
<g filter="url(#filter0_f_1_3746)">
<circle cx="246.467" cy="246.533" r="236.467" fill="#003D28"/>
</g>
<path d="M483.999 245.467C483.999 376.065 378.129 481.935 247.532 481.935C116.935 481.935 11.0645 376.065 11.0645 245.467C11.0645 114.87 116.935 9 247.532 9C378.129 9 483.999 114.87 483.999 245.467ZM45.301 245.467C45.301 357.156 135.843 447.698 247.532 447.698C359.221 447.698 449.763 357.156 449.763 245.467C449.763 133.778 359.221 43.2366 247.532 43.2366C135.843 43.2366 45.301 133.778 45.301 245.467Z" fill="white"/>
<g clip-path="url(#clip0_1_3746)">
<path d="M246.482 266.685V126.936H344.43V266.685H345.565V126.178H245.726V266.685H246.482Z" fill="#CBCBE4"/>
<path d="M344.808 165.566H246.482C246.104 165.566 246.104 165.566 246.104 165.187C246.104 164.808 246.482 164.808 246.482 164.808H344.808C345.186 164.808 345.186 164.808 345.186 165.187C345.186 165.566 345.186 165.566 344.808 165.566Z" fill="#CBCBE4"/>
<path d="M345.186 209.876H246.104C245.726 209.876 245.726 209.876 245.726 209.498C245.726 209.119 246.104 209.119 246.104 209.119H345.186C345.565 209.119 345.565 209.119 345.565 209.498C345.565 209.876 345.186 209.876 345.186 209.876Z" fill="#CBCBE4"/>
<path d="M86.8911 266.685V126.936H184.839V266.685H185.974V126.178H86.1348V266.685H86.8911Z" fill="#CBCBE4"/>
<path d="M185.596 165.566H87.2698C86.8916 165.566 86.8916 165.566 86.8916 165.187C86.8916 164.808 87.2698 164.808 87.2698 164.808H185.596C185.974 164.808 185.974 164.808 185.974 165.187C185.974 165.566 185.596 165.566 185.596 165.566Z" fill="#CBCBE4"/>
<path d="M185.596 209.876H86.5129C86.1348 209.876 86.1348 209.876 86.1348 209.498C86.1348 209.119 86.5129 209.119 86.5129 209.119H185.596C185.974 209.119 185.974 209.119 185.974 209.498C185.974 209.876 185.596 209.876 185.596 209.876Z" fill="#CBCBE4"/>
<path d="M345.943 250.021H254.802V250.779H345.943V250.021Z" fill="white"/>
<path d="M303.965 234.115H302.83H301.696H300.561C300.561 235.251 300.183 237.523 298.292 238.281V248.506H301.696H302.83H306.234V238.281C304.721 237.902 304.343 235.251 303.965 234.115Z" fill="#F9B234"/>
<path d="M304.721 232.979H303.209L302.83 229.57H302.452L302.074 232.979H300.561C300.183 232.979 299.427 233.357 299.427 234.115V235.63C299.427 236.008 299.805 236.766 300.561 236.766H305.099C305.478 236.766 306.234 236.387 306.234 235.63V234.115C305.478 233.357 305.099 232.979 304.721 232.979Z" fill="#AFABA7"/>
<path d="M272.576 150.038H271.441H270.307H269.172C269.172 151.174 268.794 153.446 266.903 154.204V164.051H270.307H271.441H274.845V154.204C272.954 153.446 272.576 151.174 272.576 150.038Z" fill="#F9B234"/>
<path d="M272.954 148.523H271.441L270.685 145.114H270.307L269.928 148.523H268.416C268.038 148.523 267.281 148.902 267.281 149.659V151.174C267.281 151.553 267.659 152.31 268.416 152.31H272.954C273.332 152.31 274.088 151.931 274.088 151.174V149.659C273.71 148.902 273.332 148.523 272.954 148.523Z" fill="#AFABA7"/>
<path d="M285.055 150.038H283.921H282.786H281.652C281.652 151.174 281.274 153.446 279.383 154.204V164.429H282.786H283.921H287.325V154.204C285.434 153.825 285.055 151.174 285.055 150.038Z" fill="#C9727A"/>
<path d="M285.433 148.523H283.92L283.542 145.114H283.164L282.786 148.523H281.273C280.895 148.523 280.139 148.902 280.139 149.659V151.174C280.139 151.553 280.517 152.31 281.273 152.31H285.433C285.811 152.31 286.568 151.931 286.568 151.174V149.659C286.568 149.28 286.19 148.523 285.433 148.523Z" fill="#383F5C"/>
<path d="M309.638 151.553H294.511V156.855H309.638V151.553Z" fill="#46CEDA"/>
<path d="M313.041 153.825V163.293C313.041 164.051 312.663 164.429 311.907 164.429H292.998C292.241 164.429 291.863 164.051 291.863 163.293V153.825C291.863 153.068 292.241 152.689 292.998 152.689H311.907C312.285 152.31 313.041 153.068 313.041 153.825Z" fill="#79BFE2"/>
<path d="M313.041 153.825V161.021C313.041 161.021 313.041 161.021 312.663 161.021C311.529 161.778 310.016 162.157 308.503 162.157C306.612 162.536 304.722 162.157 302.831 161.778C297.158 160.263 293.376 156.476 292.998 152.31H311.529C312.285 152.31 313.041 153.068 313.041 153.825Z" fill="#79BFE2"/>
<path d="M312.663 161.021C311.528 161.778 310.016 162.157 308.503 162.157C308.503 159.885 308.125 157.991 306.99 155.719C306.234 154.204 305.099 153.068 303.965 152.31H310.772C311.15 152.689 311.15 152.689 311.15 153.068C312.663 155.719 313.041 158.37 312.663 161.021Z" fill="#BBDBF2"/>
<path d="M310.394 151.553H294.132C293.754 151.553 293.376 151.174 293.376 150.795C293.376 150.417 293.754 150.038 294.132 150.038H310.394C310.772 150.038 311.15 150.417 311.15 150.795C311.15 151.174 310.772 151.553 310.394 151.553Z" fill="#383F5C"/>
<path d="M116.01 246.992L116.388 242.068L119.413 243.204L119.035 246.613L116.01 246.992Z" fill="#383F5C"/>
<path d="M113.363 249.643L114.498 239.038L116.767 240.174L116.011 249.264L113.363 249.643Z" fill="#D88791"/>
<path d="M114.12 243.583L114.498 239.796C116.011 240.932 117.146 242.447 115.633 243.204C114.876 243.583 114.498 243.583 114.12 243.583Z" fill="#FFC7DA"/>
<path d="M101.262 249.643L102.396 237.145L114.498 239.038L113.363 249.643H101.262Z" fill="#C9727A"/>
<path d="M110.338 242.826C106.556 241.689 103.909 240.174 104.287 239.038C104.665 237.902 107.691 237.902 111.472 239.038C112.607 239.417 113.741 239.796 114.498 240.174L114.12 243.583C112.985 243.583 111.472 243.583 110.338 242.826Z" fill="#E8A3AB"/>
<path d="M102.018 234.115L100.127 235.63L98.9922 246.992L100.127 245.855L102.018 234.115Z" fill="#C9727A"/>
<path d="M101.261 249.643L103.152 248.506L100.127 245.855L98.9922 246.992L101.261 249.643Z" fill="#C9727A"/>
<path d="M102.018 234.115L105.8 235.63L104.665 246.234L100.127 245.855L102.018 234.115Z" fill="#D88791"/>
<path d="M104.665 246.234C104.665 246.234 103.531 248.885 103.152 248.885C102.774 248.885 102.018 249.264 102.018 249.264L100.127 245.855L104.665 246.234Z" fill="#E8A3AB"/>
<path d="M100.883 246.613H103.53L103.152 248.506H102.017L101.639 247.749H102.774V247.37L101.261 246.992L100.883 246.613Z" fill="#C9727A"/>
<path d="M287.703 182.987H277.492V208.74H287.703V182.987Z" fill="#F79319"/>
<path d="M287.703 185.259V181.472C287.703 180.336 286.946 179.578 285.812 179.578H279.761C278.626 179.578 277.87 180.336 277.87 181.472V185.259H287.703Z" fill="#C9727A"/>
<g opacity="0.3">
<path d="M280.139 204.574C279.383 204.574 279.005 203.817 279.005 203.438V184.123C279.005 183.366 279.761 182.987 280.139 182.987C280.896 182.987 281.274 183.744 281.274 184.123V203.438C281.652 204.196 280.896 204.574 280.139 204.574Z" fill="white"/>
</g>
<path d="M331.572 139.434H329.303H327.034H324.765C324.765 141.327 324.009 145.493 320.983 146.251V163.672H327.034H328.925H334.976V146.251C332.329 145.493 331.572 141.327 331.572 139.434Z" fill="#C9727A"/>
<path d="M332.329 137.161H329.681L328.925 131.102H328.169L327.034 137.161H324.387C323.252 137.161 322.496 137.919 322.496 139.055V142.085C322.496 143.221 323.252 143.978 324.387 143.978H332.329C333.463 143.978 334.22 143.221 334.22 142.085V138.676C333.841 137.919 333.085 137.161 332.329 137.161Z" fill="#AFABA7"/>
<path d="M330.816 154.204C330.816 155.34 330.816 156.476 331.194 157.234C330.438 157.612 330.06 157.991 330.06 158.749C329.304 158.749 328.925 158.749 328.169 158.749C327.413 158.749 327.034 158.749 326.278 158.749C326.278 157.991 325.9 157.612 325.144 157.234C325.522 156.476 325.522 155.34 325.522 154.204C325.522 152.689 325.522 151.553 325.144 150.795C325.9 150.417 326.278 150.038 326.278 149.28C326.656 149.28 327.413 149.28 328.169 149.28C328.925 149.28 329.682 149.28 330.06 149.28C330.06 150.038 330.816 150.417 331.194 150.795C331.194 151.931 330.816 153.068 330.816 154.204Z" fill="white"/>
<path d="M345.943 250.021H85V271.987H345.943V250.021Z" fill="#CBCBE4"/>
<path d="M344.052 267.064H300.562V254.187H344.052V267.064ZM301.318 266.685H343.674V254.945H301.318V266.685Z" fill="white"/>
<path d="M324.386 260.626C324.386 261.762 323.63 262.519 322.495 262.519C321.361 262.519 320.604 261.762 320.604 260.626C320.604 259.49 321.361 258.732 322.495 258.732C323.252 258.732 324.386 259.868 324.386 260.626Z" fill="white"/>
<path d="M292.241 267.064H248.751V254.187H292.241V267.064ZM249.507 266.685H291.863V254.945H249.507V266.685Z" fill="white"/>
<path d="M272.576 260.626C272.576 261.762 271.819 262.519 270.685 262.519C269.55 262.519 268.794 261.762 268.794 260.626C268.794 259.49 269.55 258.732 270.685 258.732C271.441 258.732 272.576 259.868 272.576 260.626Z" fill="white"/>
<path d="M184.839 267.064H141.349V254.187H184.839V267.064ZM142.105 266.685H184.461V254.945H142.105V266.685Z" fill="white"/>
<path d="M165.173 260.626C165.173 261.762 164.417 262.519 163.282 262.519C162.148 262.519 161.392 261.762 161.392 260.626C161.392 259.49 162.148 258.732 163.282 258.732C164.039 258.732 165.173 259.868 165.173 260.626Z" fill="white"/>
<path d="M133.028 267.064H89.916V254.187H133.407V267.064H133.028ZM90.2942 266.685H132.65V254.945H90.2942V266.685Z" fill="white"/>
<path d="M113.363 260.626C113.363 261.762 112.228 262.519 111.472 262.519C110.337 262.519 109.581 261.762 109.581 260.626C109.581 259.868 110.337 258.732 111.472 258.732C112.228 258.732 113.363 259.868 113.363 260.626Z" fill="white"/>
<path d="M340.27 303.422H313.798V309.103H340.27V303.422Z" fill="#CBCBE4"/>
<path d="M313.798 353.035H312.285V270.473H321.361L313.798 353.035Z" fill="#CBCBE4"/>
<path d="M344.052 353.035H345.565V270.473H336.11L344.052 353.035Z" fill="#CBCBE4"/>
<path d="M226.816 303.422H200.344V309.103H226.816V303.422Z" fill="#CBCBE4"/>
<path d="M200.344 353.035H198.453V270.473H207.908L200.344 353.035Z" fill="#CBCBE4"/>
<path d="M230.22 353.035H232.111V270.473H222.656L230.22 353.035Z" fill="#CBCBE4"/>
<path d="M113.363 303.422H86.8906V309.103H113.363V303.422Z" fill="#CBCBE4"/>
<path d="M86.8909 353.035H85V270.473H94.4545L86.8909 353.035Z" fill="#CBCBE4"/>
<path d="M116.767 353.035H118.658V270.473H109.203L116.767 353.035Z" fill="#CBCBE4"/>
<path d="M320.226 224.268H317.957H316.066H313.797C313.797 226.162 313.041 230.328 310.016 231.085V248.506H316.066H317.957H324.008V231.085C321.361 230.328 320.605 226.162 320.226 224.268Z" fill="#ADADC4"/>
<path d="M320.983 221.996H318.336L317.579 215.936H316.823L315.689 221.996H313.041C311.907 221.996 311.15 222.753 311.15 223.889V226.919C311.15 228.055 311.907 228.813 313.041 228.813H320.983C322.118 228.813 322.874 228.055 322.874 226.919V223.889C322.874 222.753 322.118 221.996 320.983 221.996Z" fill="#AFABA7"/>
<path d="M317.201 234.494C317.201 234.494 312.284 243.583 317.201 243.583C322.495 243.583 317.201 234.494 317.201 234.494Z" fill="white"/>
<path d="M299.049 193.591H297.536H296.402H294.889C294.889 194.727 294.511 197.379 292.62 198.136V209.119H296.402H297.536H301.318V198.136C299.427 197.379 299.049 194.727 299.049 193.591Z" fill="#C9727A"/>
<path d="M299.428 192.076H297.537L297.158 188.289H296.78L296.402 192.076H294.889C294.133 192.076 293.755 192.455 293.755 193.212V195.106C293.755 195.864 294.133 196.242 294.889 196.242H299.806C300.562 196.242 300.94 195.864 300.94 195.106V193.212C300.562 192.455 299.806 192.076 299.428 192.076Z" fill="#AFABA7"/>
<path d="M296.78 200.03C296.78 200.03 293.377 206.089 296.78 206.089C300.184 205.71 296.78 200.03 296.78 200.03Z" fill="white"/>
<path d="M274.09 223.889C271.82 225.783 266.148 223.132 261.988 217.83C257.828 212.149 255.937 206.089 258.206 204.196C260.475 202.302 266.148 205.71 270.308 211.391C274.468 216.694 276.359 221.996 274.09 223.889Z" fill="#E88E8E"/>
<path d="M205.261 215.936L204.883 216.315L204.504 216.694L199.966 221.996C199.966 221.996 195.428 220.481 189.377 218.208C182.57 215.557 174.628 212.149 170.09 208.74C168.956 207.983 168.199 207.225 167.443 206.089C167.065 205.332 166.687 204.953 166.687 204.196C166.687 203.438 166.687 202.302 167.443 201.544C167.821 201.166 167.821 201.166 168.199 200.787C168.577 200.408 168.956 200.03 169.712 200.03C171.225 199.272 172.359 198.515 173.494 197.757C173.872 197.757 173.872 197.379 174.25 197.379C174.25 197.379 174.628 197.379 174.628 197L175.006 196.621C177.276 194.727 178.41 193.591 180.679 194.349C180.679 194.349 181.057 194.349 181.057 194.727C181.435 195.106 181.814 195.106 182.192 195.485C182.192 195.485 182.57 195.485 182.57 195.864C182.948 196.242 183.705 196.621 184.083 197.379C185.217 198.136 186.352 199.651 187.486 200.787C190.512 204.196 193.159 206.847 195.806 208.74C200.344 212.528 203.748 214.8 204.883 215.557C204.883 215.936 205.261 215.936 205.261 215.936Z" fill="#F79F63"/>
<path d="M183.704 197.379L167.065 206.468C164.795 203.817 164.417 199.272 169.712 198.136C171.603 197.757 173.494 197 174.628 196.621L183.704 197.379Z" fill="#D35E0D"/>
<path d="M216.984 220.102C216.228 219.723 215.471 219.723 215.093 219.345C215.849 219.723 216.606 220.481 216.984 221.238C216.984 221.238 216.984 222.374 216.606 221.617C213.58 219.723 210.555 220.481 210.555 220.481C210.555 220.481 213.58 220.102 215.849 222.374C216.228 222.753 215.849 223.132 215.471 222.753C211.689 221.617 209.42 221.996 209.42 221.996L212.068 222.374C212.446 222.374 213.58 222.753 213.58 222.753C213.202 223.132 209.799 223.511 207.908 223.889C204.882 224.268 201.479 222.374 200.344 221.617C199.966 221.238 199.588 221.238 199.588 221.238C199.588 221.238 199.21 220.86 202.613 215.936C203.369 215.936 204.126 215.936 204.504 215.936H204.882C207.908 215.936 210.177 216.315 212.068 216.694C215.471 217.83 216.606 218.966 216.984 220.102C217.362 220.102 216.984 220.481 216.984 220.102Z" fill="#F79F63"/>
<path d="M212.068 217.072C212.068 217.451 211.69 217.451 210.933 217.451C209.799 217.451 205.639 219.345 205.639 219.345L204.504 217.072V216.694L204.126 215.936C204.126 215.936 204.504 215.936 204.882 215.936C206.395 215.936 210.177 215.179 211.69 216.315C211.69 216.694 212.068 216.694 212.068 217.072Z" fill="#F79F63"/>
<path d="M165.173 204.953C165.173 204.953 153.828 176.17 166.308 169.732C184.839 160.642 185.217 196.621 185.217 196.621L165.173 204.953Z" fill="#BBDBF2"/>
<path d="M183.396 195.082L165.849 202.136L165.99 202.487L183.537 195.433L183.396 195.082Z" fill="#99C5E0"/>
<path d="M183.368 193.191L167.926 199.398L168.067 199.749L183.508 193.542L183.368 193.191Z" fill="#99C5E0"/>
<path d="M216.983 220.86C216.227 220.481 213.58 219.345 213.202 219.345C215.849 220.481 216.605 221.238 217.362 221.996C217.362 222.374 217.74 222.753 216.605 222.374C213.58 220.86 211.311 220.86 211.311 220.86C211.311 220.86 213.958 220.86 216.227 222.753C216.605 223.132 216.227 223.889 215.849 223.889C212.067 222.753 209.42 222.753 209.42 222.753L212.067 223.132C212.445 223.132 213.58 223.889 213.58 223.889C213.202 224.268 209.42 225.025 207.529 225.025C204.882 224.647 202.235 223.889 200.722 223.132C200.344 222.753 199.587 222.753 198.831 222.374C196.94 221.996 192.78 220.86 188.62 218.966C188.62 217.451 189.755 211.391 195.427 208.362C199.965 212.528 203.369 214.421 204.882 215.557C206.394 215.179 210.554 214.8 211.689 215.936C212.445 216.315 212.445 216.694 212.445 217.072C215.849 217.83 216.983 219.345 217.74 220.102C217.74 220.102 217.362 220.86 216.983 220.86Z" fill="#0094EA"/>
<path d="M169.333 281.834V282.213L137.566 351.52C137.566 351.52 125.465 357.958 128.112 347.732C129.625 341.673 136.054 315.162 140.97 294.332C144.752 279.183 147.777 267.064 147.777 267.064L169.333 281.834Z" fill="#FFAB6D"/>
<path d="M146.643 348.49C142.483 348.49 142.483 345.081 142.861 342.052L127.356 340.915L124.33 347.354C123.574 349.247 123.952 351.52 125.465 352.656C126.599 353.413 126.978 353.413 127.734 353.413C136.054 353.413 148.912 353.413 148.912 353.035C149.29 352.656 153.45 348.869 146.643 348.49Z" fill="#AFABA7"/>
<path d="M147.777 351.898H129.625L127.734 350.384H125.465V350.762H127.734L129.625 352.277L147.777 351.898Z" fill="#11B5D1"/>
<path d="M173.115 345.081C173.493 345.081 173.872 345.081 173.872 345.081L172.359 354.171L162.526 352.277C162.526 352.277 146.265 262.141 143.995 256.46C136.81 237.902 147.021 218.966 147.021 218.966L175.006 228.055C175.006 228.055 173.872 249.264 173.493 276.153C173.493 279.183 173.493 281.834 173.493 284.864C172.737 305.315 172.359 326.903 173.115 345.081Z" fill="#F79F63"/>
<path d="M138.323 228.055C130.76 246.992 130.003 257.596 134.163 277.29C135.298 282.592 137.567 291.681 137.567 291.681C144.752 286.379 181.435 286 181.435 286L175.763 240.553L179.923 223.889L138.323 228.055Z" fill="#383F5C"/>
<path d="M182.948 226.919C157.61 234.494 130.003 231.464 130.003 231.464L134.919 224.647L135.297 223.889L139.079 217.451V217.072L138.323 209.876C137.188 198.893 136.432 187.91 138.701 176.927C140.97 170.489 151.181 168.595 151.937 168.217C153.072 167.459 149.668 169.353 150.803 168.974C150.803 168.974 151.181 168.974 151.181 168.595L151.559 168.217L151.937 167.838C157.988 164.051 165.174 165.566 170.09 167.08C173.115 168.217 175.384 169.353 175.384 169.353C175.384 169.353 176.519 170.489 178.41 182.987C178.41 183.744 178.788 184.881 178.788 185.638C179.166 187.153 179.166 189.047 179.544 191.319C179.544 191.698 179.544 191.698 179.544 192.076C179.544 192.455 179.544 192.455 179.544 192.834V193.213C179.544 193.591 179.544 193.97 179.544 193.97V194.349C179.544 194.727 179.544 194.727 179.544 195.106V195.485C179.922 199.272 180.301 203.817 180.679 209.119C180.679 209.498 180.679 209.876 180.679 210.255C181.057 212.528 181.057 215.179 181.435 217.83C181.435 218.208 181.435 218.208 181.435 218.587C181.435 218.966 181.435 218.966 181.435 219.345C181.435 219.723 181.435 219.723 181.435 220.102C182.57 222.374 182.948 224.647 182.948 226.919Z" fill="#383F5C"/>
<path d="M149.29 221.996C143.617 216.315 140.97 206.089 139.079 197C138.701 193.97 137.188 186.774 139.457 177.685L142.104 175.412C143.239 174.276 144.373 173.14 145.886 172.383C151.559 182.229 171.98 190.561 176.897 200.03C183.704 212.149 161.013 234.115 149.29 221.996Z" fill="#99C5E0"/>
<path d="M182.57 220.481C168.199 225.025 147.021 225.025 135.298 224.647L135.676 223.889L139.458 217.451V217.072C153.829 219.345 151.181 211.391 153.072 206.847C155.719 198.893 147.021 179.957 144.752 171.625C147.4 169.732 151.181 168.595 152.694 168.595C154.585 172.004 161.392 174.276 162.148 184.123C167.443 180.715 172.737 180.336 176.141 181.472C177.276 181.851 178.41 182.608 179.167 182.987C179.167 183.744 179.545 184.881 179.545 185.638C179.923 187.153 179.923 189.047 180.301 191.319C180.301 191.698 180.301 191.698 180.301 192.076C180.301 192.455 180.301 192.455 180.301 192.834V193.213C180.301 193.591 180.301 193.97 180.301 193.97V194.349C180.301 194.727 180.301 194.727 180.301 195.106V195.485C180.679 199.272 181.057 203.817 181.436 209.119C181.436 209.498 181.436 209.876 181.436 210.255C181.814 212.528 181.814 215.179 182.192 217.83C182.192 218.208 182.192 218.208 182.192 218.587C182.192 218.966 182.192 218.966 182.192 219.345C182.57 219.723 182.57 220.102 182.57 220.481Z" fill="white"/>
<path d="M165.552 135.646C165.552 135.646 157.989 133.753 151.56 140.57C135.298 158.37 154.963 163.293 158.367 164.429L164.039 162.536C171.225 159.885 168.199 161.021 168.199 161.021C168.199 161.021 175.007 145.493 165.552 135.646Z" fill="#2D2D83"/>
<path d="M168.956 147.008C168.956 147.008 168.956 147.008 168.956 147.765C168.956 148.523 168.956 150.038 168.578 153.068C168.578 154.961 168.2 157.234 168.2 160.263C168.2 161.4 168.2 162.536 167.821 164.051C167.821 165.944 167.443 167.838 167.443 170.11C167.443 172.004 165.931 173.519 164.04 173.519C160.258 173.898 157.232 172.004 155.72 170.489C154.585 169.353 154.207 167.838 154.585 166.323L159.123 151.553L160.258 148.902L160.636 147.387L162.149 142.463L162.527 141.706H162.905L168.2 146.251L168.956 147.008Z" fill="#FFAB6D"/>
<path d="M168.577 153.068C168.577 153.825 168.577 155.34 168.199 158.37C168.199 160.263 167.821 162.157 167.821 165.187C165.93 165.566 163.661 165.187 161.77 161.4C160.636 158.749 159.879 156.476 160.258 154.204C160.258 153.825 160.258 153.446 160.258 153.068C160.636 151.174 161.014 149.659 161.77 148.902C161.77 148.523 162.148 148.523 162.148 148.144L162.527 147.766C162.905 147.387 162.905 147.387 163.283 147.387C164.039 147.387 165.93 148.902 167.821 151.553C168.199 152.31 168.577 152.689 168.577 153.068Z" fill="#D35E0D"/>
<path d="M164.039 146.629C162.905 150.795 165.552 154.583 169.334 155.719C173.494 156.855 177.276 154.204 178.41 150.417C179.545 146.251 177.276 142.085 173.116 141.327C168.956 140.191 165.174 142.463 164.039 146.629Z" fill="#2D2D83"/>
<path d="M154.206 144.357C153.072 148.523 155.719 152.31 159.501 153.446C163.661 154.583 167.443 151.931 168.577 148.144C169.712 143.978 167.064 140.191 163.283 139.055C159.501 137.919 155.341 140.191 154.206 144.357Z" fill="#2D2D83"/>
<path d="M165.93 140.948C165.93 140.948 175.763 137.919 175.384 156.476C176.519 166.323 168.199 163.672 165.552 162.536C159.123 159.506 159.123 154.961 158.366 152.689C157.61 150.417 159.123 140.948 165.93 140.948Z" fill="#FFAB6D"/>
<path d="M176.141 147.387C175.006 148.902 172.359 148.144 170.09 146.629C167.821 144.736 166.687 142.085 167.821 140.948C168.956 139.434 171.603 140.191 173.872 141.706C176.141 143.6 177.276 145.872 176.141 147.387Z" fill="#2D2D83"/>
<path d="M159.123 139.812C158.366 142.842 160.635 146.251 164.795 147.387C168.577 148.523 172.359 146.629 173.115 143.6C173.872 140.57 171.603 137.161 167.443 136.025C163.661 134.889 159.879 136.782 159.123 139.812Z" fill="#2D2D83"/>
<path d="M153.45 154.961C156.098 156.855 160.257 155.34 162.905 151.553C165.552 147.765 165.552 143.221 162.905 141.327C160.257 139.812 156.098 141.327 153.45 145.114C150.803 148.523 150.803 153.068 153.45 154.961Z" fill="#2D2D83"/>
<path d="M173.872 150.417C173.872 150.417 172.737 149.659 171.981 150.038C171.981 150.038 171.981 150.038 171.603 150.038C171.603 150.038 171.603 150.038 171.603 149.659C172.737 149.28 173.493 149.659 173.872 150.417Z" fill="white"/>
<path d="M171.981 149.659C171.981 148.902 171.224 148.144 170.468 147.387C170.09 147.008 169.711 147.008 169.333 147.008C169.333 147.008 169.333 147.008 168.955 147.008C168.955 147.008 168.955 147.008 168.577 147.008C167.821 147.008 167.442 147.387 167.064 147.387C166.308 147.766 165.93 148.523 165.93 149.28C165.93 149.28 165.93 149.28 165.93 149.659C165.93 150.417 165.93 150.795 166.308 151.553C166.686 152.31 167.442 152.689 168.577 153.068C169.333 153.068 169.711 153.068 170.468 152.689C171.224 152.31 171.981 151.553 171.981 150.417C171.981 150.417 171.981 150.417 171.981 149.659C171.981 150.038 171.981 150.038 171.981 149.659ZM171.602 150.417C171.602 151.174 171.224 151.931 170.468 152.31C170.09 152.689 169.333 152.689 168.955 152.689H168.577C167.821 152.689 167.442 151.931 167.064 151.553C166.686 151.174 166.686 150.417 166.686 150.038C166.686 148.902 167.821 147.766 169.333 147.766C169.333 147.766 169.333 147.766 169.711 147.766C170.09 147.766 170.846 148.144 171.224 148.144C171.224 148.523 171.602 149.28 171.602 150.417Z" fill="white"/>
<path d="M178.788 148.523C178.409 147.766 177.653 147.387 176.519 147.008H176.14C175.384 147.008 175.006 147.387 174.628 147.766C174.628 147.766 174.25 147.766 174.25 148.144C173.871 148.523 173.493 149.28 173.493 149.659C173.493 150.795 174.25 152.31 175.384 152.689C175.762 152.689 175.762 152.689 176.14 152.689C176.519 152.689 176.897 152.689 177.275 152.689C178.409 152.31 179.166 151.553 179.166 150.038C179.166 149.659 179.166 149.28 178.788 148.523ZM178.788 150.417C178.788 151.174 178.031 151.931 177.275 152.31C177.275 152.689 176.519 153.068 176.14 152.689C175.762 152.689 175.762 152.689 175.384 152.689C174.628 152.31 173.871 151.553 173.871 150.417V150.038C173.871 149.28 174.25 148.523 175.006 148.144C175.006 148.144 175.006 148.144 175.384 148.144C175.762 148.144 176.14 147.766 176.14 147.766C176.519 147.766 176.519 147.766 176.897 147.766C178.031 147.766 178.788 148.523 179.166 149.28C178.788 149.659 179.166 150.038 178.788 150.417Z" fill="white"/>
<path d="M160.257 151.931C160.636 153.068 161.392 153.825 162.148 153.446C162.905 153.068 163.283 152.31 162.905 151.174C162.526 150.038 161.77 149.28 161.014 149.659C160.636 149.659 159.879 150.795 160.257 151.931Z" fill="#FFAB6D"/>
<path d="M186.73 356.443C186.352 356.822 171.981 356.822 162.526 356.822C161.014 356.822 159.501 355.307 159.501 353.792V353.413V350.005V346.218V343.567H161.392L173.115 344.324H174.25C176.141 346.975 179.544 350.762 184.083 351.141C191.646 351.141 187.108 355.686 186.73 356.443Z" fill="#AFABA7"/>
<path d="M185.217 354.928H164.417L162.148 353.413H159.501V353.792H162.148L164.417 355.307L185.217 354.928C185.595 355.307 185.595 355.307 185.217 354.928C185.595 355.307 185.595 354.928 185.217 354.928C185.595 354.928 185.595 354.928 185.217 354.928Z" fill="#11B5D1"/>
<path d="M175.763 184.881C175.763 183.744 176.141 182.608 175.763 181.472C175.385 175.034 172.359 169.732 170.847 167.459C173.872 168.595 176.141 169.732 176.141 169.732C176.141 169.732 177.276 170.868 179.167 183.366C179.167 184.123 179.545 185.259 179.545 186.017C178.41 185.638 176.898 185.259 175.763 184.881Z" fill="white"/>
<path d="M147.777 221.238C147.777 221.238 159.501 260.626 157.232 294.332C191.268 296.605 198.075 287.515 198.075 287.515C198.075 287.515 185.595 222.753 182.57 216.315C179.166 209.876 147.777 220.481 147.777 220.481V221.238Z" fill="white"/>
<path d="M176.14 142.842H171.98L167.064 144.736L162.904 147.008L161.77 150.417L159.122 153.446L157.988 155.719V158.37L157.231 156.097L158.366 153.068L161.013 150.038L162.148 146.251L166.308 143.978L171.602 141.706L175.006 141.327H176.897L176.14 142.842Z" fill="#BBDBF2"/>
<g opacity="0.54">
<path d="M176.519 141.706L171.603 142.085L162.904 146.629L161.392 150.417L158.366 153.068L157.988 156.855V160.263L156.097 163.672C154.963 165.566 152.694 166.702 150.803 165.944C149.29 165.187 147.777 164.051 147.021 162.914L145.508 160.642C144.752 159.506 144.374 158.37 144.752 157.234L145.13 150.417C145.13 148.523 145.886 146.629 147.021 145.114L150.425 140.948C150.803 140.57 151.559 139.812 151.937 139.434L155.719 136.782C156.854 135.646 158.744 134.889 160.635 134.889H167.443H169.333C171.224 134.889 173.115 135.268 174.628 136.404L177.275 138.297C177.653 139.434 177.653 141.327 176.519 141.706Z" fill="#BBDBF2"/>
</g>
<path d="M146.265 148.902L147.777 154.961H150.803L154.206 157.991L151.181 155.34L148.156 154.583L146.265 148.902Z" fill="#BBDBF2"/>
<path d="M151.181 142.085L151.559 147.765L156.475 150.038L159.501 149.659L156.097 149.28L151.559 147.008L151.181 142.085Z" fill="#BBDBF2"/>
<path d="M162.526 347.732C162.526 348.111 162.526 348.49 162.148 348.869C162.148 348.869 162.148 349.247 161.77 349.247C161.392 349.247 161.014 349.626 160.636 349.626H159.501V345.839H160.636C161.014 345.839 161.392 345.839 161.77 346.218C162.148 346.596 162.526 347.354 162.526 347.732Z" fill="#11B5D1"/>
<path d="M128.868 345.46C128.868 345.839 128.49 346.218 128.112 346.218C128.112 346.218 127.734 346.218 127.734 346.596C127.356 346.596 126.599 346.596 126.221 346.596L125.465 345.839L126.978 342.43L128.112 342.809C128.49 343.188 128.868 343.188 128.868 343.567C128.868 344.324 128.868 344.703 128.868 345.46Z" fill="#11B5D1"/>
<path d="M175.385 347.733C175.007 347.733 174.25 347.733 173.872 347.354C173.116 346.596 172.738 345.081 173.872 344.324C173.872 344.324 173.872 344.324 174.25 344.324C174.25 344.324 174.25 344.324 174.25 344.703C173.494 345.46 173.494 346.596 174.25 347.354C175.007 348.111 176.141 348.111 176.898 347.354C176.898 347.354 176.898 347.354 177.276 347.354C177.276 347.354 177.276 347.354 177.276 347.733C176.52 347.354 176.141 347.733 175.385 347.733Z" fill="#11B5D1"/>
<path d="M178.411 350.384C178.032 350.384 177.276 350.384 176.898 350.005C176.52 349.626 176.142 349.247 176.142 348.49C176.142 347.733 176.142 347.354 176.52 346.975C176.52 346.975 176.52 346.975 176.898 346.975C176.898 346.975 176.898 346.975 176.898 347.354C176.52 347.733 176.52 348.111 176.52 348.869C176.52 349.247 176.898 349.626 177.276 350.005C178.032 350.762 179.167 350.762 179.923 350.005C179.923 350.005 179.923 350.005 180.302 350.005C180.302 350.005 180.302 350.005 180.302 350.384C179.545 350.005 179.167 350.384 178.411 350.384Z" fill="#11B5D1"/>
<path d="M142.861 346.596C142.483 346.596 141.726 346.218 141.348 346.218C140.97 345.839 140.592 345.46 140.592 344.703C140.592 343.945 140.592 343.567 140.97 343.188C141.348 342.809 141.726 342.43 142.483 342.43C142.105 342.43 141.726 342.809 141.348 343.188C140.97 343.567 140.97 343.945 140.97 344.703C140.97 345.081 141.348 345.46 141.726 345.839C142.105 346.218 142.483 346.218 142.861 346.596C143.239 346.218 142.861 346.218 142.861 346.596Z" fill="#11B5D1"/>
<path d="M144.374 349.626C143.995 349.626 143.617 349.626 143.239 349.247C142.861 348.869 142.483 348.49 142.104 347.732C142.104 347.354 142.104 346.596 142.483 346.218C142.483 346.218 142.483 346.218 142.861 346.218C142.861 346.218 142.861 346.218 142.861 346.596C142.483 346.975 142.483 347.354 142.483 348.111C142.483 348.49 142.861 348.869 143.239 349.247C143.617 349.626 143.995 349.626 144.752 349.626C145.13 349.626 145.508 349.247 145.886 348.869C145.886 348.869 145.886 348.869 146.264 348.869C146.264 348.869 146.264 348.869 146.264 349.247C145.886 349.626 145.508 350.005 144.752 350.384C144.752 349.626 144.752 349.626 144.374 349.626Z" fill="#11B5D1"/>
<path d="M129.625 342.43C130.003 340.158 128.49 339.022 128.49 339.022L126.978 342.43H129.625Z" fill="#AFABA7"/>
<path d="M162.148 344.324C161.392 342.052 159.501 342.052 159.501 342.052V345.46L162.148 344.324Z" fill="#AFABA7"/>
<path d="M179.167 253.809L260.097 214.421C260.097 214.421 259.719 223.889 270.686 222.753C281.653 221.617 282.41 236.387 282.41 236.387C282.41 236.387 266.148 234.494 258.206 246.991C252.534 255.702 252.155 257.975 247.617 259.868C242.701 262.14 238.163 265.549 234.759 269.336C232.112 272.366 228.708 274.26 226.061 275.017C221.145 276.532 216.228 279.183 212.447 282.592C209.421 285.243 205.261 287.136 199.967 285.621C198.076 284.864 195.807 284.864 193.916 284.864C179.167 285.243 179.167 253.809 179.167 253.809Z" fill="#F39B99"/>
<path d="M179.923 257.596C179.923 257.596 185.974 256.081 191.268 253.43C195.05 251.536 199.21 250.779 202.614 248.885C206.395 246.992 209.799 244.719 212.068 242.826C216.228 239.796 219.253 239.038 223.792 237.902C227.951 236.766 232.111 234.872 235.137 232.6C237.406 230.706 240.053 229.191 243.079 228.055C247.995 226.162 254.802 220.859 256.315 219.723L257.828 218.208L260.097 214.421C260.097 214.421 256.315 207.604 251.777 204.196C247.239 200.787 215.85 217.072 215.85 217.072L167.443 227.298C167.443 227.298 166.687 231.085 168.199 234.494C169.712 237.902 170.847 241.311 171.603 244.719C173.116 252.294 179.923 257.596 179.923 257.596Z" fill="#F7B9B7"/>
<path d="M263.5 236.008C258.206 237.523 254.802 242.447 255.181 248.128C255.181 255.323 254.802 265.17 250.642 272.745C245.348 282.592 244.97 294.332 244.97 299.256C244.97 300.771 245.726 302.285 246.861 303.043C250.642 305.694 258.584 310.239 263.5 301.907C269.929 290.924 271.064 264.792 275.602 254.566C280.14 244.34 282.409 237.145 282.409 237.145C282.409 237.145 282.031 229.949 263.5 236.008Z" fill="#F39B99"/>
<path d="M248.751 203.817C248.751 203.817 216.228 212.906 213.581 201.166C212.068 193.97 211.69 188.289 211.69 185.259C211.69 183.744 210.555 182.229 208.664 181.851L200.723 180.715C199.588 180.715 198.453 181.093 197.697 181.851C195.428 184.123 191.268 188.668 193.537 194.349C188.999 199.651 192.403 205.71 195.428 207.983C196.563 208.74 197.697 209.876 198.453 211.013C201.857 217.83 216.228 217.451 219.253 216.315C222.657 214.421 248.751 203.817 248.751 203.817Z" fill="#F39B99"/>
<path d="M179.167 246.613C178.788 246.992 178.41 247.37 178.788 248.128C178.788 248.506 179.167 248.506 179.545 248.506C179.923 248.506 179.923 248.506 180.301 248.506C182.57 246.992 184.461 248.885 184.461 249.264C184.839 249.643 184.839 249.643 185.218 249.643C185.596 249.643 185.596 249.643 185.974 249.264C186.352 248.885 186.352 248.128 185.974 247.749C185.218 246.613 182.57 244.34 179.167 246.613Z" fill="#F39B99"/>
<path d="M183.705 241.311C184.461 241.311 184.839 240.932 184.839 240.553C184.839 240.174 184.461 239.417 184.083 239.417C181.436 238.66 181.436 236.008 181.814 236.008C181.814 235.63 181.436 234.872 181.058 234.872C180.679 234.872 180.679 234.872 180.301 234.872C179.923 234.872 179.923 235.251 179.923 235.63C179.545 236.766 179.923 240.174 183.705 241.311Z" fill="#F39B99"/>
<path d="M219.632 228.055C219.254 228.055 219.254 228.434 219.254 228.813C219.254 229.191 219.254 229.191 219.254 229.57C219.632 229.949 220.01 230.328 220.767 229.949C223.036 228.434 224.927 230.328 224.927 230.706C225.305 231.085 225.305 231.085 225.683 231.085C226.061 231.085 226.061 231.085 226.439 230.706C226.817 230.328 226.817 229.57 226.439 229.191C225.683 228.055 222.658 225.783 219.632 228.055Z" fill="#F39B99"/>
<path d="M223.414 220.481C224.17 220.481 224.548 220.102 224.548 219.723C224.548 219.345 224.17 218.587 223.792 218.587C221.145 217.83 221.145 215.179 221.523 215.179C221.523 214.8 221.145 214.042 220.767 214.042C220.388 214.042 219.632 214.421 219.632 214.8C219.254 215.936 219.632 219.345 223.414 220.481Z" fill="#F39B99"/>
<path d="M240.81 211.391C240.053 210.634 237.406 208.362 234.003 210.255C233.624 210.634 233.246 211.013 233.624 211.77C234.003 212.149 234.381 212.528 235.137 212.149C237.406 210.634 239.297 212.528 239.297 212.906C239.675 213.285 239.675 213.285 240.053 213.285C240.432 213.285 240.432 213.285 240.81 212.906C241.188 212.906 241.188 212.528 241.188 212.149C241.188 212.149 241.188 211.77 240.81 211.391Z" fill="#F39B99"/>
<path d="M238.541 223.889C235.894 223.511 236.272 220.859 236.272 220.481C236.272 220.102 235.894 219.345 235.515 219.345C235.137 219.345 235.137 219.345 234.759 219.345C234.381 219.345 234.381 219.723 234.381 220.102C234.381 221.238 234.759 224.647 238.163 225.783C238.163 225.783 238.163 225.783 238.541 225.783C238.919 225.783 239.297 225.404 239.675 225.025C239.297 224.647 239.297 224.268 238.541 223.889Z" fill="#F39B99"/>
<path d="M196.185 201.544C195.807 201.544 195.807 201.923 195.807 202.302C195.807 202.681 195.807 202.681 195.807 203.059C196.185 203.438 196.563 203.817 197.319 203.438C199.588 201.923 201.479 203.817 201.479 204.196C201.857 204.574 201.857 204.574 202.236 204.574C202.614 204.574 202.614 204.574 202.992 204.196C203.37 203.817 203.37 203.059 202.992 202.681C202.236 201.544 199.588 199.272 196.185 201.544Z" fill="#F7B9B7"/>
<path d="M213.581 209.498C213.959 209.498 213.959 209.119 213.959 209.119C213.959 208.74 213.959 208.74 213.959 208.362C213.581 207.983 213.203 207.604 212.825 207.983C210.177 209.119 209.043 206.847 208.665 206.847C208.665 206.468 208.287 206.468 207.908 206.468C207.53 206.468 207.53 206.468 207.152 206.468C206.774 206.847 206.396 207.225 206.774 207.983C207.908 208.362 210.177 211.013 213.581 209.498Z" fill="#F7B9B7"/>
<path d="M201.479 193.97C202.236 193.97 202.614 193.591 202.614 193.212C202.614 192.834 202.236 192.076 201.857 192.076C199.21 191.319 199.21 188.668 199.588 188.668C199.588 188.289 199.21 187.532 198.832 187.532C198.454 187.532 197.698 187.91 197.698 188.289C197.319 189.425 197.698 193.212 201.479 193.97Z" fill="#F7B9B7"/>
<path d="M227.195 266.306C226.817 266.306 226.817 266.306 226.438 265.928C226.438 265.928 224.548 264.034 222.278 265.17C221.9 265.549 221.144 265.17 221.144 264.792C220.766 264.413 221.144 263.655 221.522 263.655C224.926 261.762 227.573 263.655 228.329 264.792C228.708 265.17 228.708 265.928 228.329 265.928C227.573 266.306 227.573 266.306 227.195 266.306Z" fill="#F7B9B7"/>
<path d="M247.239 255.323C246.482 255.323 246.104 254.945 246.482 254.187C246.861 250.4 250.264 249.643 251.399 249.643C251.777 249.643 252.155 250.021 252.155 250.4C252.155 250.779 251.777 251.157 251.399 251.157C251.399 251.157 248.751 251.157 248.373 254.187C247.995 254.945 247.617 255.323 247.239 255.323Z" fill="#F7B9B7"/>
<path d="M191.268 265.549C190.512 265.549 190.133 265.17 190.512 264.413C190.89 260.626 194.293 259.868 195.428 259.868C195.806 259.868 196.184 260.247 196.184 260.626C196.184 261.004 195.806 261.383 195.428 261.383C195.428 261.383 192.781 261.383 192.403 264.413C192.403 265.17 192.024 265.549 191.268 265.549Z" fill="#F7B9B7"/>
<path d="M188.621 275.017C187.864 275.017 187.486 275.017 187.108 274.638C186.73 274.638 186.352 273.881 186.73 273.502C186.73 273.124 187.486 272.745 187.864 273.124C187.864 273.124 190.512 273.881 191.646 271.609C192.024 271.23 192.403 270.851 192.781 271.23C193.159 271.609 193.537 271.987 193.159 272.366C192.024 274.26 189.755 275.017 188.621 275.017Z" fill="#F7B9B7"/>
<path d="M208.286 270.472C207.529 270.472 207.151 270.473 206.773 270.094C206.017 270.094 206.017 269.715 206.017 269.336C206.017 268.958 206.773 268.579 207.151 268.958C207.151 268.958 209.798 269.715 210.933 267.443C211.311 267.064 211.689 266.685 212.067 267.064C212.446 267.443 212.824 267.821 212.446 268.2C211.689 270.094 209.798 270.472 208.286 270.472Z" fill="#F7B9B7"/>
<path d="M206.017 254.566C205.261 254.566 204.882 254.187 205.261 253.43C205.639 249.643 209.042 248.885 210.177 248.885C210.555 248.885 210.933 249.264 210.933 249.643C210.933 250.021 210.555 250.4 210.177 250.4C210.177 250.4 207.53 250.4 207.152 253.43C206.773 254.187 206.395 254.566 206.017 254.566Z" fill="#F7B9B7"/>
<path d="M222.279 257.217C219.253 257.217 217.74 254.566 217.362 253.43C217.362 253.051 217.362 252.294 218.119 252.294C218.497 252.294 219.253 252.294 219.253 253.051C219.253 253.051 220.01 255.702 223.035 255.323C223.413 255.323 224.17 255.702 224.17 256.081C224.17 256.46 223.791 257.217 223.413 257.217C222.657 257.217 222.657 257.217 222.279 257.217Z" fill="#F7B9B7"/>
<path d="M227.195 244.34C226.817 244.34 226.817 244.34 226.438 243.962C226.438 243.962 224.548 242.068 222.278 243.204C221.9 243.583 221.144 243.204 221.144 242.826C220.766 242.447 221.144 241.689 221.522 241.689C224.926 239.796 227.573 241.689 228.329 242.826C228.708 243.204 228.708 243.962 228.329 243.962C227.573 244.34 227.573 244.34 227.195 244.34Z" fill="#F7B9B7"/>
<path d="M234.38 261.004C234.002 261.004 234.002 261.004 233.623 260.626C233.245 260.247 233.245 259.489 233.623 259.489C233.623 259.489 235.514 257.596 234.002 255.323C233.623 254.945 233.623 254.187 234.38 254.187C234.758 253.809 235.514 253.809 235.514 254.566C237.783 257.596 235.893 260.626 234.758 261.383C234.758 261.004 234.38 261.004 234.38 261.004Z" fill="#F7B9B7"/>
<path d="M239.296 237.145C238.54 237.145 238.162 236.766 238.54 236.008C238.918 232.221 242.322 231.464 243.456 231.464C243.834 231.464 244.213 231.842 244.213 232.221C244.213 232.6 243.834 232.979 243.456 232.979C243.456 232.979 240.809 232.979 240.431 236.008C240.053 237.145 239.674 237.145 239.296 237.145Z" fill="#F7B9B7"/>
<path d="M248.372 245.098C247.994 245.098 247.994 245.098 247.616 244.719C245.347 241.689 247.238 238.66 247.994 237.902C248.372 237.523 249.129 237.523 249.129 237.902C249.507 238.281 249.507 238.66 249.129 239.038C249.129 239.038 247.238 240.932 248.75 243.204C249.129 243.583 249.129 244.34 248.75 244.34C248.75 245.098 248.372 245.098 248.372 245.098Z" fill="#F7B9B7"/>
<path d="M255.937 228.813C255.181 228.813 254.802 228.434 255.181 227.676C255.559 223.889 258.962 223.132 260.097 223.132C260.475 223.132 260.853 223.51 260.853 223.889C260.853 224.268 260.475 224.647 260.097 224.647C260.097 224.647 257.45 224.647 257.071 227.676C256.693 228.434 256.315 228.813 255.937 228.813Z" fill="#F7B9B7"/>
<path d="M261.988 236.008C261.232 236.008 260.853 236.008 260.475 235.63C260.097 235.63 259.719 234.872 260.097 234.494C260.097 234.115 260.853 233.736 261.232 234.115C261.232 234.115 263.879 234.872 265.013 232.6C265.392 232.221 265.77 231.842 266.148 232.221C266.526 232.221 266.526 232.6 266.526 232.979C265.392 235.251 263.501 236.008 261.988 236.008Z" fill="#F7B9B7"/>
<path d="M253.668 209.498C253.668 207.983 254.046 206.847 255.181 205.71C256.693 203.817 262.366 201.923 260.853 205.71C258.206 211.77 260.853 214.8 260.853 214.8C260.853 214.8 254.046 217.83 253.668 209.498Z" fill="#F39B99"/>
<path d="M260.096 214.8C260.096 214.8 256.693 221.617 267.282 224.647C269.173 225.025 273.711 225.025 274.845 223.132C275.98 221.238 271.82 221.238 268.794 219.723C264.256 217.83 260.096 214.8 260.096 214.8Z" fill="#F7B9B7"/>
<path d="M259.719 304.179C250.264 304.179 246.104 298.498 246.104 298.119L246.483 297.741C246.483 297.741 250.264 303.422 259.719 303.422V304.179Z" fill="#E88E8E"/>
<path d="M250.264 291.681C249.508 291.681 249.13 291.302 249.508 290.545C249.886 286.758 253.29 286 254.424 286C254.802 286 255.18 286.379 255.18 286.758C255.18 287.136 254.802 287.515 254.424 287.515C254.424 287.515 251.777 287.515 251.399 290.545C251.399 291.302 251.02 291.681 250.264 291.681Z" fill="#F7B9B7"/>
<path d="M256.693 272.745C256.315 272.745 256.315 272.745 256.693 272.745C255.936 272.745 255.558 272.366 255.936 271.609C256.315 267.821 259.718 267.064 260.853 267.064C261.231 267.064 261.609 267.443 261.609 267.821C261.609 268.2 261.231 268.579 260.853 268.579C260.853 268.579 258.206 268.579 257.827 271.609C257.449 272.366 257.071 272.745 256.693 272.745Z" fill="#F7B9B7"/>
<path d="M261.231 285.621C260.853 285.621 260.475 285.243 260.475 285.243C260.097 284.864 260.475 284.107 260.853 284.107C260.853 284.107 263.122 282.592 262.366 279.941C262.366 279.562 262.366 278.804 262.744 278.804C263.122 278.804 263.879 278.804 263.879 279.183C265.013 282.592 262.366 284.864 261.61 285.621C261.61 285.621 261.61 285.621 261.231 285.621Z" fill="#F7B9B7"/>
<path d="M274.089 248.506C273.333 248.506 272.955 248.128 273.333 247.37C273.711 243.583 277.115 242.826 278.249 242.826C278.627 242.826 279.006 243.204 279.006 243.583C279.006 243.962 278.627 244.34 278.249 244.34C278.249 244.34 275.602 244.34 275.224 247.37C275.224 248.128 274.467 248.506 274.089 248.506Z" fill="#F7B9B7"/>
<path d="M265.013 254.566C264.635 254.566 264.257 254.187 264.257 253.809C264.257 253.809 263.123 251.157 260.475 251.915C260.097 251.915 259.341 251.915 259.341 251.157C259.341 250.779 259.341 250.021 260.097 250.021C263.879 248.885 265.77 251.915 266.148 253.051C266.148 253.809 265.77 254.566 265.013 254.566Z" fill="#F7B9B7"/>
<path d="M266.148 262.519C265.392 262.519 265.014 262.519 264.635 262.141C264.257 262.141 263.879 261.383 264.257 261.004C264.257 260.626 265.014 260.247 265.392 260.626C265.392 260.626 268.039 261.383 269.174 259.111C269.552 258.732 269.93 258.353 270.308 258.732C270.686 259.111 271.064 259.489 270.686 259.868C269.552 261.762 267.661 262.519 266.148 262.519Z" fill="#F7B9B7"/>
<path d="M259.718 214.042C259.718 214.042 258.584 218.966 247.239 225.025C244.591 226.162 242.7 227.676 240.431 228.813C237.028 231.085 233.246 232.979 227.573 235.63C226.061 236.387 224.17 236.766 222.279 237.523C218.875 238.66 215.093 239.796 212.824 241.689C204.126 248.885 180.301 256.46 179.923 256.46L180.301 257.217C180.679 257.217 204.504 249.264 213.203 242.068C215.472 240.174 219.253 239.038 222.657 237.902C224.548 237.145 226.439 236.766 227.951 236.008C233.624 233.357 237.406 231.085 240.81 229.191C243.079 228.055 244.969 226.54 247.617 225.404C256.693 220.481 259.718 216.315 260.475 214.8C260.097 214.8 260.097 214.421 259.718 214.042Z" fill="#E88E8E"/>
<path d="M197.319 182.229C201.101 185.259 211.311 184.123 211.311 184.123V184.881C210.933 184.881 200.722 186.017 196.562 182.608L197.319 182.229Z" fill="#E88E8E"/>
<path d="M213.203 229.57L195.05 240.553L194.294 240.932L193.916 241.311L192.781 242.068L192.403 240.174C192.403 239.796 192.025 239.038 191.647 238.66L190.512 237.145L190.134 236.009L209.799 223.889L210.555 225.404L213.203 229.57Z" fill="white"/>
<path d="M195.05 240.553L194.293 240.932L193.915 241.311L192.402 237.523L195.05 240.553Z" fill="#F2F2F2"/>
<path d="M196.563 239.796H195.806L194.672 237.523L196.563 239.796Z" fill="#F2F2F2"/>
<path d="M199.21 237.902L198.454 238.281L197.697 237.145C197.697 236.766 198.075 236.387 198.075 236.766L199.21 237.902Z" fill="#F2F2F2"/>
<path d="M207.908 232.6L207.53 232.979L206.396 230.706L207.908 232.6Z" fill="#F2F2F2"/>
<path d="M209.42 231.843L208.664 232.221L207.151 229.191L209.42 231.843Z" fill="#F2F2F2"/>
<path d="M210.555 225.783C208.665 227.677 206.395 230.328 199.966 232.6C196.185 234.115 192.781 236.387 190.89 237.902L190.134 236.009L209.799 223.889L210.555 225.783Z" fill="#F2F2F2"/>
<path d="M211.312 224.268C211.312 224.647 210.933 225.404 210.555 225.404L191.268 237.145C190.512 237.523 189.755 237.523 188.999 236.766V236.387V236.009C188.999 235.63 189.377 234.872 189.755 234.872L209.042 223.132C209.042 223.132 209.042 223.132 209.421 223.132H209.799C210.177 223.132 210.933 223.132 210.933 223.511C210.933 223.511 210.933 223.511 210.933 223.889C211.312 223.511 211.312 223.889 211.312 224.268Z" fill="#BF6670"/>
<path d="M208.287 223.889L207.53 222.753C206.774 221.617 204.883 220.859 203.748 221.996L190.134 230.328C188.999 231.085 188.243 232.979 189.378 234.115L190.134 235.251C190.512 235.63 191.647 235.251 191.269 234.494L190.512 233.357C190.134 232.6 190.512 231.842 190.89 231.464L204.505 223.132C205.261 222.753 206.017 223.132 206.396 223.511L207.152 224.647C207.53 224.647 208.287 224.268 208.287 223.889Z" fill="#C9727A"/>
<path d="M210.555 223.132C209.799 225.404 195.05 233.357 192.025 235.251C190.134 236.387 189.377 236.766 188.621 236.387V236.009C188.621 235.63 188.999 234.872 189.377 234.872L208.665 223.132C208.665 223.132 208.665 223.132 209.043 223.132H209.421C209.799 222.374 210.555 222.753 210.555 223.132Z" fill="#C9727A"/>
<path d="M188.242 222.374L187.863 222.753L187.485 223.132L185.973 225.025L182.947 228.813C182.947 228.813 178.031 227.677 171.98 225.783C164.795 223.511 156.096 220.481 151.18 217.072C150.046 216.315 148.911 215.557 148.533 214.421C148.155 213.664 147.777 213.285 147.398 212.528C147.02 211.391 147.398 210.634 148.155 209.876C148.533 209.498 148.533 209.498 148.911 209.119C148.911 209.119 149.289 209.119 149.289 208.74C149.667 208.362 150.046 208.362 150.424 207.983C151.936 207.225 153.071 206.089 154.206 205.332C154.584 205.332 154.584 204.953 154.962 204.953C154.962 204.953 155.34 204.953 155.34 204.574L155.718 204.196C157.987 202.302 159.122 200.787 161.391 201.544H161.769C162.147 201.544 162.525 201.923 162.904 202.302C162.904 202.302 163.282 202.302 163.282 202.681C163.66 203.059 164.416 203.438 165.173 204.196C166.307 204.953 167.442 206.089 168.955 207.604C173.114 211.77 176.896 214.8 179.922 217.072C183.703 219.723 186.351 221.238 187.863 221.996C187.863 222.374 188.242 222.374 188.242 222.374Z" fill="#FFAB6D"/>
<path d="M164.795 204.196L148.155 214.8C145.508 212.149 145.13 207.604 150.424 206.089C152.693 205.332 154.206 204.953 155.719 204.196H164.795Z" fill="#D35E0D"/>
<path d="M200.722 226.162C199.966 225.783 199.21 225.783 198.453 225.783C199.21 226.162 199.966 226.919 200.722 227.676C200.722 227.676 201.101 228.813 200.344 228.055C196.941 226.162 194.293 226.919 193.915 227.298C193.915 227.298 197.319 226.919 199.588 228.813C199.966 229.191 199.588 229.57 199.21 229.191C195.05 228.434 192.781 228.434 192.781 228.434L195.428 228.813C195.806 228.813 197.319 229.191 196.941 229.191C196.562 229.57 193.159 230.328 191.268 230.706C187.864 231.085 184.461 229.57 182.948 228.813C182.57 228.434 182.192 228.434 182.192 228.434C182.192 228.434 181.813 228.055 184.082 225.025C184.461 224.647 184.839 223.889 185.217 223.132C185.973 223.132 186.73 223.132 187.486 222.753H187.864C191.268 222.374 193.537 222.753 195.428 223.132C196.941 223.511 197.697 223.511 198.831 223.889C199.966 224.647 200.722 225.025 201.101 225.783L200.722 226.162Z" fill="#FFAB6D"/>
<path d="M195.427 223.132C195.427 223.511 195.049 223.511 194.293 223.511C193.536 223.511 190.511 225.025 189.376 225.404C188.998 225.404 188.998 225.404 188.998 225.404L187.864 223.132L187.486 222.753L187.107 222.374C187.107 222.374 187.486 222.374 187.864 222.374C189.376 221.996 193.536 221.996 195.049 223.132C195.427 223.132 195.427 222.753 195.427 223.132Z" fill="#FFAB6D"/>
<path d="M146.265 213.285C146.265 213.285 131.894 178.442 143.617 171.625C154.963 165.944 165.174 204.196 165.174 204.196L146.265 213.285Z" fill="#BBDBF2"/>
<path d="M164.249 202.002L146.45 210.376L146.611 210.719L164.41 202.345L164.249 202.002Z" fill="#99C5E0"/>
<path d="M163.832 200.154L148.087 207.562L148.248 207.905L163.993 200.497L163.832 200.154Z" fill="#99C5E0"/>
<path d="M200.722 226.162C199.966 225.783 199.209 225.783 198.453 225.783C199.209 226.162 199.966 226.919 200.722 227.677C200.722 227.677 201.1 228.813 200.344 228.055C196.94 226.162 193.915 227.298 193.915 227.298C193.915 227.298 197.318 226.54 199.587 228.813C199.966 229.191 199.587 229.57 199.209 229.191C195.049 228.434 192.78 228.434 192.78 228.434L195.428 228.813C195.806 228.813 197.318 229.191 196.94 229.191C196.562 229.57 193.158 230.328 191.268 230.706C187.864 231.085 184.46 229.57 182.948 228.813C182.948 228.813 178.031 227.677 171.98 225.783C174.25 219.345 177.275 217.451 179.922 217.072C183.704 219.723 186.729 221.238 187.864 221.996C189.377 221.617 193.537 221.238 194.671 221.996C195.428 222.374 195.806 222.753 195.428 223.132C198.831 223.889 200.344 225.025 200.722 225.783C201.1 225.783 200.722 226.162 200.722 226.162Z" fill="#0094EA"/>
<path d="M100.505 149.659H98.9922H97.8577H96.7232C96.7232 150.795 96.345 153.068 94.4541 153.825V164.051H97.8577H98.9922H102.396V153.825C100.883 153.446 100.505 150.795 100.505 149.659Z" fill="#F9B234"/>
<path d="M100.884 148.523H99.3709L98.6145 144.736H98.2364L97.8582 148.523H96.3455C95.5891 148.523 95.2109 148.902 95.2109 149.659V151.174C95.2109 151.553 95.5891 152.31 96.3455 152.31H100.884C101.262 152.31 102.018 151.931 102.018 151.174V149.659C102.018 148.902 101.262 148.523 100.884 148.523Z" fill="#383F5C"/>
<path d="M113.363 149.659H111.851H110.716H109.582C109.582 150.795 109.203 153.068 107.312 153.825V164.051H110.716H111.851H115.254V153.825C113.742 153.446 113.363 150.795 113.363 149.659Z" fill="#ADADC4"/>
<path d="M113.742 148.523H112.229L111.473 144.736H111.095L110.717 148.523H109.204C108.448 148.523 108.069 148.902 108.069 149.659V151.174C108.069 151.553 108.448 152.31 109.204 152.31H113.742C114.12 152.31 114.877 151.931 114.877 151.174V149.659C114.877 148.902 114.12 148.523 113.742 148.523Z" fill="#383F5C"/>
<path d="M126.222 149.659H125.087H123.953H122.44C122.44 150.795 122.062 153.068 120.171 153.825V164.051H123.575H124.709H128.113V153.825C126.6 153.446 126.222 150.795 126.222 149.659Z" fill="#ADADC4"/>
<path d="M126.6 148.523H125.088L124.71 145.114H124.331L123.953 148.523H121.684C121.306 148.523 120.928 148.902 120.928 149.659V151.174C120.928 151.553 121.306 152.31 122.062 152.31H126.6C126.979 152.31 127.735 151.931 127.735 151.174V149.659C127.357 148.902 126.979 148.523 126.6 148.523Z" fill="#383F5C"/>
<path d="M100.505 193.97H98.9922H97.8577H96.7232C96.7232 195.106 96.345 197.378 94.4541 198.136V208.361H97.8577H98.9922H102.396V198.136C100.883 197.378 100.505 195.106 100.505 193.97Z" fill="#C9727A"/>
<path d="M100.884 192.455H99.3709L98.9927 189.047H98.2364L97.8582 192.455H96.3455C95.9673 192.455 95.2109 192.834 95.2109 193.591V195.106C95.2109 195.485 95.5891 196.242 96.3455 196.242H100.884C101.262 196.242 102.018 195.864 102.018 195.106V193.591C102.018 192.834 101.262 192.455 100.884 192.455Z" fill="#383F5C"/>
<path d="M113.363 193.97H111.851H110.716H109.582C109.582 195.106 109.203 197.378 107.312 198.136V208.361H110.716H111.851H115.254V198.136C113.742 197.378 113.363 195.106 113.363 193.97Z" fill="#C9727A"/>
<path d="M113.742 192.455H112.229L111.473 189.047H111.095L110.717 192.455H109.204C108.826 192.455 108.069 192.834 108.069 193.591V195.106C108.069 195.485 108.448 196.242 109.204 196.242H113.742C114.12 196.242 114.877 195.864 114.877 195.106V193.591C114.877 192.834 114.12 192.455 113.742 192.455Z" fill="#383F5C"/>
<path d="M126.222 193.97H125.087H123.953H122.44C122.44 195.106 122.062 197.378 120.171 198.136V208.361H123.575H124.709H128.113V198.136C126.6 197.378 126.222 195.106 126.222 193.97Z" fill="#ADADC4"/>
<path d="M126.6 192.455H125.087L124.709 189.047H124.331L123.952 192.455H121.683C121.305 192.455 120.549 192.834 120.549 193.591V195.106C120.549 195.485 120.927 196.242 121.683 196.242H126.6C126.978 196.242 127.734 195.864 127.734 195.106V193.591C127.356 192.834 126.978 192.455 126.6 192.455Z" fill="#383F5C"/>
</g>
<g clip-path="url(#clip1_1_3746)">
<path d="M357.309 224.128C356.933 224.128 356.933 223.752 356.557 223.752C346.396 216.229 341.504 210.962 336.612 208.705L339.999 202.31C346.02 204.191 355.428 207.2 363.707 210.21C372.738 213.971 371.233 218.109 368.975 222.247C366.341 226.009 361.072 226.762 357.309 224.128Z" fill="#FFAB6D"/>
<path d="M341.504 202.686C341.504 202.686 336.612 200.053 332.473 200.805C330.591 201.181 327.204 201.558 326.828 202.31C326.452 202.686 327.957 202.686 328.333 202.686L331.344 203.062C331.344 203.062 329.086 203.438 324.946 202.686C324.57 202.686 324.57 203.062 324.57 203.062C327.204 204.943 330.215 204.191 330.215 204.191C330.215 204.191 327.581 205.319 323.817 203.438C323.065 203.062 323.065 203.815 323.441 203.815C325.699 206.824 329.838 206.072 329.838 206.072C329.838 206.072 327.204 206.072 323.441 205.319C323.065 205.319 323.065 205.696 323.065 205.696C324.194 206.824 327.581 209.081 338.494 207.576C341.88 203.438 341.504 202.686 341.504 202.686Z" fill="#FFAB6D"/>
<path d="M337.741 209.081C337.741 209.081 332.097 210.586 330.591 209.457C328.71 208.329 329.462 208.329 330.591 207.953C331.72 207.953 335.483 205.695 335.483 205.695L337.741 209.081Z" fill="#FFAB6D"/>
<path d="M375.748 215.1C375.748 215.1 365.211 227.138 361.825 223.752C358.062 220.367 354.298 212.091 359.943 206.448C365.588 200.805 379.888 207.953 375.748 215.1Z" fill="#FFAB6D"/>
<path d="M375.749 216.229C375.749 216.229 393.059 184.253 381.77 177.858C365.588 168.454 357.686 207.953 357.686 207.953L375.749 216.229Z" fill="#C9C9D5"/>
<path d="M375.373 213.971C374.997 213.971 374.997 213.971 375.373 213.971L358.439 206.448C358.439 206.448 358.439 206.448 358.439 206.072C358.439 206.072 358.439 206.072 358.815 206.072L375.373 213.971C375.373 213.595 375.373 213.595 375.373 213.971Z" fill="white"/>
<path d="M373.115 211.714L358.439 204.943C358.439 204.943 358.439 204.943 358.439 204.567C358.439 204.567 358.439 204.567 358.815 204.567L373.115 211.714C373.492 211.338 373.492 211.338 373.115 211.714C373.492 211.714 373.492 211.338 373.115 211.714Z" fill="white"/>
<path d="M417.519 220.367L420.906 224.504C420.906 224.504 417.896 229.395 408.488 230.147C399.08 230.9 368.222 228.642 368.222 226.009C368.222 223.376 393.059 209.081 417.519 220.367Z" fill="#52527C"/>
<path d="M422.035 326.073C422.035 326.073 408.488 331.339 393.435 326.073C399.08 318.926 418.648 321.183 422.035 326.073Z" fill="#52527C"/>
<path d="M403.22 326.073C403.22 326.073 389.672 331.339 374.62 326.073C380.265 318.926 399.833 321.183 403.22 326.073Z" fill="#333359"/>
<path d="M371.609 288.079L378.006 336.23L390.425 332.468V275.289L375.749 279.05L371.609 288.079Z" fill="#F29251"/>
<path d="M374.996 324.192L372.361 328.33C372.361 328.33 360.696 330.587 359.19 332.844C357.685 335.101 358.061 338.111 358.061 338.111H391.93L391.553 329.459L377.63 327.954L374.996 324.192Z" fill="#8E5211"/>
<path d="M377.254 332.468C377.63 332.468 377.63 332.092 377.254 332.092L372.738 328.33H372.362V328.706L377.254 332.468C376.878 332.468 376.878 332.468 377.254 332.468Z" fill="#252930"/>
<path d="M373.114 333.22C373.491 333.22 373.491 332.844 373.114 332.844L368.598 329.082H368.222V329.459L373.114 333.22Z" fill="#252930"/>
<path d="M402.843 326.073C398.703 324.568 393.811 323.816 389.295 323.816C384.403 323.816 379.511 324.568 374.619 326.073C374.243 324.944 365.964 266.26 365.964 266.26L370.48 219.238H394.564H395.693C395.693 219.238 400.209 233.157 400.209 234.285C400.209 235.79 395.693 250.461 395.693 250.461L402.843 326.073C403.219 326.073 403.219 326.073 402.843 326.073Z" fill="#52527C"/>
<path d="M390.425 289.207L400.962 336.23L413.38 332.092L407.735 274.913L387.791 280.179L390.425 289.207Z" fill="#FFAB6D"/>
<path d="M397.575 324.192L394.94 328.33C394.94 328.33 383.275 330.587 381.769 332.844C380.264 335.101 380.641 338.111 380.641 338.111H414.509L414.132 329.459L400.209 327.954L397.575 324.192Z" fill="#A5671C"/>
<path d="M399.456 332.468C399.832 332.468 399.832 332.092 399.456 332.092L394.94 328.33H394.564V328.706L399.456 332.468Z" fill="#252930"/>
<path d="M395.693 333.22C396.07 333.22 396.07 332.844 395.693 332.844L391.178 329.082H390.801V329.459L395.693 333.22Z" fill="#252930"/>
<path d="M415.262 258.361L422.035 326.073C417.896 324.568 413.38 323.816 408.488 323.816C403.219 323.816 398.327 324.568 393.812 326.449C393.059 324.944 384.404 265.884 384.404 265.884L389.296 218.862H413.38H414.509C414.509 218.862 419.025 232.78 419.025 233.909C419.025 234.661 417.896 238.799 416.767 242.561C415.262 247.828 414.885 253.094 415.262 258.361Z" fill="#636396"/>
<path d="M390.801 218.862L391.178 241.056C386.662 238.799 383.651 233.909 383.275 228.642L382.899 218.862H390.801Z" fill="#636396"/>
<path d="M397.198 168.83C399.456 169.206 400.962 169.582 402.467 170.335V171.463C400.209 173.72 391.554 172.216 390.048 169.958V169.206C391.554 168.454 394.564 168.078 397.198 168.83Z" fill="#C90223"/>
<path d="M394.941 159.802C394.941 159.802 391.178 157.168 389.296 159.049C387.415 161.306 378.007 159.426 378.759 153.783C379.512 148.14 386.286 149.269 386.286 149.269C386.286 149.269 389.296 144.002 393.059 145.883C396.822 147.764 402.091 146.259 402.091 146.259C402.091 146.259 403.972 150.773 404.349 154.535C404.725 158.297 401.338 165.444 394.941 159.802Z" fill="#52527C"/>
<path d="M390.801 158.673C390.801 158.673 390.801 158.673 390.801 159.425C390.801 160.178 390.801 161.306 390.801 163.94C390.801 165.444 390.801 167.325 390.801 169.958C390.801 171.087 390.801 172.216 390.801 173.344C390.801 174.849 390.801 176.73 390.801 178.611C390.801 180.115 391.93 181.62 393.811 181.996C397.198 182.749 400.209 181.244 402.09 180.115C402.843 178.987 403.596 177.482 403.219 176.354L399.832 163.187L399.08 160.554L398.703 159.425L397.575 155.287V154.911H397.198L391.554 157.921L390.801 158.673Z" fill="#FFAB6D"/>
<path d="M390.425 159.425C390.425 160.178 390.425 161.306 390.425 164.316C390.425 165.821 390.425 167.701 390.425 170.335C392.683 170.711 394.941 170.711 397.199 167.325C398.704 165.068 399.08 162.811 399.08 160.93C399.08 160.554 399.08 160.178 399.08 160.178C399.08 158.673 398.327 157.168 397.951 156.416C397.951 156.04 397.575 156.04 397.575 155.664L397.199 155.287C396.822 154.911 396.822 154.911 396.446 154.911C395.693 154.911 393.435 156.04 391.554 158.297C391.177 158.673 390.801 159.049 390.425 159.425Z" fill="#D35E0D"/>
<path d="M385.533 154.535C385.533 154.535 384.404 169.206 388.92 168.83C394.941 167.701 397.575 166.949 399.08 162.059C400.209 158.673 396.822 150.773 396.822 150.773C396.822 150.773 387.038 148.516 385.533 154.535Z" fill="#FFAB6D"/>
<path d="M393.812 153.783C393.812 153.783 389.296 152.654 387.791 154.911C386.662 157.168 377.254 158.673 376.501 154.159C376.125 151.15 378.759 149.269 380.265 148.516C381.394 148.14 382.146 147.388 382.523 146.635C383.275 145.131 385.157 142.874 387.791 142.874C390.049 142.874 391.178 143.626 392.307 144.378C393.812 145.507 395.693 145.883 397.575 145.131C399.457 144.754 401.338 144.754 402.091 146.259C403.596 149.269 400.586 157.168 393.812 153.783Z" fill="#52527C"/>
<path d="M399.833 156.416C399.457 157.168 399.08 157.921 397.951 157.921C397.199 157.921 396.822 156.792 396.822 156.04C396.822 154.911 397.575 154.159 398.328 154.535C399.457 154.535 399.833 155.288 399.833 156.416Z" fill="#FFAB6D"/>
<path d="M420.53 224.881C409.24 220.743 387.791 218.109 376.125 221.871L367.846 226.009C367.846 226.009 367.846 190.272 373.114 179.739C378.759 169.582 412.251 171.839 416.767 178.234C425.422 191.401 420.53 224.881 420.53 224.881Z" fill="#FFFCF8"/>
<path d="M397.575 153.03C397.575 153.03 397.575 155.288 398.327 157.168C399.08 159.049 397.198 159.049 395.317 153.783C393.435 148.516 397.575 153.03 397.575 153.03Z" fill="#52527C"/>
<path d="M388.919 174.096C393.435 177.106 402.467 174.473 403.596 174.096C403.596 173.72 403.219 172.968 403.219 172.216C402.843 171.463 402.843 171.087 402.467 170.335C397.575 171.463 393.059 170.335 391.177 169.582C390.425 169.582 390.048 169.206 390.048 169.206C390.048 169.206 390.048 169.582 390.048 170.335C389.672 171.087 389.672 172.592 388.919 174.096Z" fill="#149CE0"/>
<path d="M353.511 231.09L358.403 237.109C358.403 237.109 386.25 230.714 398.669 224.319C404.314 221.309 406.948 218.3 402.056 216.043C400.174 214.914 398.669 214.162 397.54 213.033C393.024 209.648 392.648 207.767 380.229 216.419C364.048 227.328 353.511 231.09 353.511 231.09Z" fill="#FFAB6D"/>
<path d="M388.509 211.152L402.432 221.685C406.195 219.052 407.701 214.914 401.68 213.786C399.422 213.409 393.777 209.648 391.896 208.895L388.509 211.152Z" fill="#FFAB6D"/>
<path d="M359.156 236.733C348.619 241.999 344.856 241.247 343.351 240.494C342.975 240.494 343.351 240.118 343.351 240.118C344.104 240.118 344.856 239.742 345.609 239.742C344.856 239.742 343.727 239.742 342.975 238.99C342.975 238.99 342.222 238.237 343.351 238.237C347.114 238.237 349.748 236.733 349.748 236.733C349.748 236.733 346.738 238.237 343.727 237.861C343.351 237.861 343.351 237.485 343.727 237.485C347.867 236.733 350.125 235.604 350.125 235.604L347.49 236.356C347.114 236.356 345.609 236.733 345.985 236.356C346.362 235.604 348.996 234.099 350.877 233.347C354.64 231.466 360.285 231.842 360.285 231.842C360.285 231.842 360.285 231.842 359.156 236.733Z" fill="#FFAB6D"/>
<path d="M359.156 230.714C359.156 230.714 352.383 230.714 350.501 231.466C348.619 232.595 349.748 232.595 350.877 232.595C352.006 232.595 357.275 233.347 357.275 233.347L359.156 230.714Z" fill="#FFAB6D"/>
<path d="M405.854 220.367C405.854 220.367 425.046 189.144 414.133 182.372C398.704 172.216 388.544 210.962 388.544 210.962L405.854 220.367Z" fill="#E7E7EB"/>
<path d="M405.478 217.733L389.296 209.081C389.296 209.081 389.296 209.081 388.92 209.081C388.92 209.081 388.92 209.081 388.92 209.457L405.478 217.733Z" fill="white"/>
<path d="M403.596 215.476C403.972 215.1 403.972 215.1 403.596 215.476L389.296 207.953C389.296 207.953 389.296 207.953 388.919 207.953C388.919 207.953 388.919 207.953 388.919 208.329L403.596 215.476Z" fill="white"/>
<path d="M313.245 311.216L349.748 317.611C350.877 317.987 352.006 317.235 352.006 316.106L360.661 275.855C361.037 274.727 360.285 273.974 359.156 273.598L322.653 267.203C321.524 266.827 320.395 267.579 320.395 268.708L311.74 308.959C311.364 310.088 312.116 311.216 313.245 311.216Z" fill="white"/>
<path d="M335.071 269.46C335.071 269.46 310.611 263.065 284.645 278.488C303.461 310.464 329.803 294.664 335.071 269.46Z" fill="#7A8299"/>
<path d="M289.914 323.254C306.095 332.658 351.253 317.235 353.511 309.711C346.361 300.683 342.974 281.874 341.845 272.47C341.469 269.084 338.458 266.827 334.695 266.827L322.277 267.203L320.019 267.579C321.524 268.708 322.277 270.589 322.653 272.47C324.158 278.488 319.266 284.883 311.74 286.388C304.214 287.893 297.064 284.131 295.558 278.112C295.182 276.608 295.182 274.727 295.558 273.222L293.677 273.598L288.408 275.855C283.14 278.112 280.13 283.755 282.011 289.021C285.398 299.178 290.29 316.483 289.914 323.254Z" fill="#697087"/>
<path d="M315.879 267.203C315.879 267.203 310.987 286.764 311.74 286.764C312.493 286.764 324.158 287.893 325.287 279.993C326.416 272.093 323.029 265.322 323.029 265.322L315.879 267.203Z" fill="#383F5C"/>
<path d="M298.945 270.589C298.945 270.589 312.493 286.388 312.116 286.764C311.364 287.141 301.58 292.783 296.687 286.012C291.795 279.241 291.795 272.093 291.795 272.093L298.945 270.589Z" fill="#383F5C"/>
<path d="M318.514 324.758C318.89 324.758 318.89 324.758 318.514 324.758C318.89 324.382 318.514 318.74 318.137 316.859C317.761 315.73 315.879 311.592 314.374 308.207C313.622 306.326 312.869 304.821 312.869 304.821C312.493 303.692 309.482 289.398 309.858 287.893V287.517C309.858 287.517 309.482 287.141 309.482 287.517C309.106 287.517 308.73 287.893 310.611 296.169C311.364 300.307 312.493 304.445 312.493 304.821C312.493 305.197 313.245 306.326 313.998 308.583C315.503 311.592 317.385 315.73 317.761 316.859C317.761 318.74 318.137 324.758 318.514 324.758Z" fill="#383F5C"/>
<path d="M311.363 290.902C311.739 292.031 312.868 292.783 313.997 292.407C315.126 292.031 315.879 290.902 315.879 289.774C315.503 288.645 314.374 287.893 313.245 288.269C311.739 288.645 310.987 289.774 311.363 290.902Z" fill="#383F5C"/>
<path d="M313.622 303.692C313.998 304.821 315.127 305.573 316.256 305.197C317.385 304.821 318.138 303.692 318.138 302.564C317.761 301.435 316.632 300.683 315.504 301.059C314.375 301.435 313.622 302.564 313.622 303.692Z" fill="#383F5C"/>
<path d="M319.642 317.235C320.019 318.363 321.148 319.116 322.277 318.74C323.406 318.363 324.158 317.235 324.158 316.106C323.782 314.978 322.653 314.225 321.524 314.602C320.019 314.978 319.266 316.106 319.642 317.235Z" fill="#383F5C"/>
<path d="M372.326 344.32L365.176 345.448L361.037 349.963L355.016 310.84L356.521 289.398C356.521 289.398 356.521 289.398 359.532 287.893C358.779 289.021 361.037 314.225 361.037 314.225L372.326 344.32Z" fill="#F29179"/>
<path d="M356.521 289.398L335.071 286.012L307.977 292.783L282.764 289.398V349.962H361.037C361.037 349.962 355.769 311.968 355.392 310.84C355.016 309.711 356.521 289.398 356.521 289.398Z" fill="#E5674E"/>
<path d="M355.015 291.279L334.318 288.269L308.353 294.664L284.269 291.279V348.082H359.531C359.531 348.082 354.639 312.345 354.263 311.216C353.51 310.464 355.015 291.279 355.015 291.279Z" fill="#FFB7A9"/>
<path d="M305.343 297.674C306.848 287.517 310.611 280.369 315.503 277.736C318.514 276.231 321.524 276.608 324.911 278.112C333.943 282.25 333.943 297.297 333.943 297.674H335.824C335.824 297.674 335.824 293.536 334.695 289.021C333.19 283.003 330.18 278.488 325.664 276.608C321.524 274.727 317.761 274.727 314.374 276.231C311.74 277.736 309.106 279.993 307.224 283.755C305.343 287.517 303.838 292.031 303.085 297.297L305.343 297.674Z" fill="#E5674E"/>
<path d="M334.319 302.564H336.2C337.329 302.564 338.082 301.812 338.082 300.683V295.793H332.437V300.683C332.061 301.812 333.19 302.564 334.319 302.564Z" fill="#E5674E"/>
<path d="M303.837 302.564H305.343C306.472 302.564 307.601 301.435 307.601 300.307V295.793H301.58V300.683C301.58 301.812 302.709 302.564 303.837 302.564Z" fill="#E5674E"/>
<path d="M333.566 298.426C333.566 299.178 334.318 299.931 335.071 299.931C335.824 299.931 336.576 299.178 336.576 298.426C336.576 297.674 335.824 296.921 335.071 296.921C334.318 296.921 333.566 297.674 333.566 298.426Z" fill="#FFB7A9"/>
<path d="M303.084 297.674C303.084 298.426 303.837 299.178 304.589 299.178C305.342 299.178 306.095 298.426 306.095 297.674C306.095 296.921 305.342 296.169 304.589 296.169C303.837 296.545 303.084 296.921 303.084 297.674Z" fill="#FFB7A9"/>
</g>
<defs>
<filter id="filter0_f_1_3746" x="0.2" y="0.265185" width="492.535" height="492.535" filterUnits="userSpaceOnUse" color-interpolation-filters="sRGB">
<feFlood flood-opacity="0" result="BackgroundImageFix"/>
<feBlend mode="normal" in="SourceGraphic" in2="BackgroundImageFix" result="shape"/>
<feGaussianBlur stdDeviation="4.9" result="effect1_foregroundBlur_1_3746"/>
</filter>
<clipPath id="clip0_1_3746">
<rect width="260.943" height="230.644" fill="white" transform="translate(85 126.178)"/>
</clipPath>
<clipPath id="clip1_1_3746">
<rect width="140.365" height="207.275" fill="white" transform="matrix(-1 0 0 1 422 142.688)"/>
</clipPath>
</defs>
</svg>
