<?xml version="1.0" encoding="UTF-8"?>
<svg id="Layer_1" xmlns="http://www.w3.org/2000/svg" version="1.1" xmlns:xlink="http://www.w3.org/1999/xlink" viewBox="0 0 1080 1080">
  <!-- Generator: Adobe Illustrator 29.0.0, SVG Export Plug-In . SVG Version: 2.1.0 Build 186)  -->
  <defs>
    <style>
      .st0, .st1 {
        fill: #1b4722;
      }

      .st2 {
        fill: #ebe2d2;
      }

      .st1 {
        font-family: Montserrat-Regular, Montserrat;
        font-size: 50.7px;
      }
    </style>
  </defs>
  <image width="128" height="128" transform="translate(-7652 -7652)" xlink:href="laundrica-1.png"/>
  <rect class="st2" width="1080" height="1080"/>
  <g>
    <path class="st0" d="M94.5,444.6v96.7h56.1v19h-76.8v-115.6h20.7Z"/>
    <path class="st0" d="M157.5,560.2l45-115.6h20.7l44.9,115.6h-22.3l-8.5-22.4h-49.2l-8.5,22.4h-22.3ZM212.9,518.8h0c8.4,0,14.3-8.4,11.3-16.3l-11.3-29.9-11.3,29.9c-3,7.9,2.9,16.3,11.3,16.3Z"/>
    <path class="st0" d="M322.5,542.9c3.6,0,6.9-.6,9.9-1.9,3-1.3,5.7-3,7.9-5.3,2.2-2.2,4-4.9,5.3-8,1.3-3.1,1.9-6.5,1.9-10.2v-73h20.7v73c0,6.3-1.2,12.2-3.5,17.6-2.3,5.4-5.5,10.1-9.6,14.1-4.1,4-8.9,7.1-14.5,9.3-5.6,2.2-11.7,3.4-18.2,3.4s-12.8-1.1-18.4-3.3c-5.6-2.2-10.4-5.2-14.4-9.1-4-3.9-7.2-8.6-9.5-14.1-2.3-5.5-3.5-11.4-3.5-17.9v-73h20.7v73c0,3.7.6,7.1,1.9,10.2,1.3,3.1,3,5.8,5.2,8,2.2,2.2,4.8,4,7.9,5.3,3.1,1.3,6.4,1.9,10,1.9Z"/>
    <path class="st0" d="M484.2,444.6v115.6h-21.6l-53-82v82h-20.7v-115.6h21.6l53,82v-82h20.7Z"/>
    <path class="st0" d="M607.7,502.4c0,8.6-1.5,16.5-4.4,23.6-2.9,7.1-7,13.2-12.3,18.3-5.2,5.1-11.5,9.1-18.9,11.8-7.4,2.8-15.5,4.1-24.5,4.1h-42.6v-115.6h42.6c9,0,17.1,1.4,24.5,4.1,7.4,2.8,13.7,6.7,19,11.8,5.3,5.1,9.4,11.2,12.3,18.3,2.9,7.1,4.3,14.9,4.3,23.6ZM586.9,502.4c0-5.9-.9-11.2-2.8-16-1.9-4.8-4.6-8.9-8-12.3-3.5-3.4-7.6-6-12.4-7.9-4.8-1.8-10.2-2.8-16.2-2.8h-21.7v77.7h21.7c6,0,11.4-.9,16.2-2.8,4.8-1.8,9-4.5,12.4-7.9,3.5-3.4,6.1-7.5,8-12.3,1.9-4.8,2.8-10.1,2.8-16Z"/>
    <path class="st0" d="M714.7,482.7c0,10.5-3.1,19-9.2,25.6-6.2,6.6-14.6,10.6-25.3,12,2.4,6.3,6.4,11.2,12.1,14.8,5.6,3.5,12.5,5.3,20.7,5.3h42.3v19.8h-43.2c-7.9,0-15.2-1.3-21.9-4-6.7-2.6-12.4-6.4-17.3-11.1-4.8-4.8-8.6-10.5-11.2-17.1-2.6-6.6-4-13.9-4-21.8v-4.3h14.3c6.6,0,11.8-1.7,15.9-5.1,4-3.4,6-8.1,6-14.1s-2-10.5-5.9-14c-3.9-3.5-9.3-5.2-16.1-5.2h-26.4v96.7h-20.7v-115.6h47.1c6.6,0,12.5.9,17.7,2.7,5.2,1.8,9.7,4.3,13.4,7.7,3.7,3.3,6.5,7.3,8.5,12,2,4.7,3,9.9,3,15.8Z"/>
    <path class="st0" d="M755.2,444.6v90.1h-20.7v-90.1h20.7Z"/>
    <path class="st0" d="M772.5,502.4c0-8.7,1.5-16.8,4.5-24.1,3-7.3,7.2-13.6,12.5-18.8,5.4-5.2,11.7-9.3,19.1-12.3,7.4-2.9,15.5-4.4,24.3-4.4s13.4.9,19.6,2.8c6.2,1.8,11.7,4.5,16.7,7.9,4.9,3.5,9.2,7.6,12.9,12.5,3.6,4.9,6.4,10.4,8.4,16.5h-22.4c-3.3-6.6-8.1-11.7-14.2-15.3-6.1-3.6-13.1-5.4-20.9-5.4s-11.2,1-16.1,3c-4.8,2-9,4.8-12.5,8.4-3.5,3.6-6.2,7.8-8.2,12.8-2,4.9-2.9,10.4-2.9,16.4s1,11.3,2.9,16.3c2,5,4.7,9.3,8.2,12.9,3.5,3.6,7.7,6.4,12.5,8.4,4.8,2,10.2,3,16.1,3s14.8-1.8,20.9-5.4c6.1-3.6,10.8-8.7,14.2-15.3h22.4c-2,6.1-4.7,11.6-8.4,16.5-3.6,4.9-7.9,9.1-12.9,12.5-4.9,3.5-10.5,6.1-16.7,7.9-6.2,1.8-12.7,2.8-19.6,2.8s-17-1.5-24.3-4.4c-7.4-2.9-13.7-7-19.1-12.3-5.4-5.3-9.5-11.6-12.5-18.8-3-7.2-4.5-15.2-4.5-24Z"/>
    <path class="st0" d="M895.6,560.2l45.1-115.6h20.7l44.9,115.6h-22.3l-8.5-22.4h-49.2l-8.5,22.4h-22.3ZM951,518.8h0c8.4,0,14.3-8.4,11.3-16.3l-11.3-29.9-11.3,29.9c-3,7.9,2.9,16.3,11.3,16.3Z"/>
  </g>
  <text class="st1" transform="translate(159.3 637.2)"><tspan x="0" y="0">Luxury freshness within reach</tspan></text>
  <path class="st0" d="M681.4,391.3c5.2,2,9.2,6.4,10.8,11.8,1.8-2.8,2.6-6.1,2.6-9.7.2-12.2-9.6-15.8-19.7-20.4l-128.4-58.3c-.5-13.2-.7-8.9,7.3-16.5,8.4-7.9,12.1-14.5,10.6-26.8-1.1-8.8-7.8-16.2-15.2-19.1-9.1-3.6-18.9-1.8-25.9,4.3-6.2,5.5-9.7,13.1-8,21.2.6,3.1,3.9,4.1,6.6,3.9,2.4-.1,5.4-1.9,5.5-5.1.3-7.2,5.3-13.5,12.9-13.2,4.5.2,8.2,3.1,9.9,6.3,2.2,4.1,2.3,8.6,0,12.7-4.5,7.7-16.3,10.4-17,24-.1,2.8.2,5.4-.2,8.3l-128.8,58.5c-8.3,3.8-15.8,6.9-19.2,15.4v9.1c.9,3.3,3,6.6,5.8,9.2,0-.2,0-.4,0-.6-.2-5.6,2.7-10.6,7-13.9,0,0,.2-.2.3-.2,0-.2,0-.3.2-.5,2.3-2.1,4.5-3.2,7.4-4.6l134.3-61.1,133.9,61c2.9,1.3,5.2,2.6,7.6,4.5Z"/>
</svg>